<?xml version="1.0" standalone="no"?>
<!DOCTYPE svg PUBLIC "-//W3C//DTD SVG 20010904//EN"
 "http://www.w3.org/TR/2001/REC-SVG-20010904/DTD/svg10.dtd">
<svg version="1.0" xmlns="http://www.w3.org/2000/svg"
 width="619.000000pt" height="619.000000pt" viewBox="0 0 619.000000 619.000000"
 preserveAspectRatio="xMidYMid meet">
<metadata>
Created by potrace 1.14, written by Peter Selinger 2001-2017
</metadata>
<g transform="translate(0.000000,619.000000) scale(0.100000,-0.100000)"
fill="#000000" stroke="none">
<path d="M3341 4771 c-6 -10 -197 -767 -426 -1681 -391 -1567 -414 -1664 -399
-1682 20 -21 57 -24 72 -5 6 7 198 762 427 1677 338 1352 414 1669 406 1687
-13 29 -65 32 -80 4z m-345 -1586 c-1 -8 -5 -17 -8 -21 -5 -4 -4 16 1 34 3 9
9 -1 7 -13z m-19 -60 c-4 -8 -11 -15 -17 -15 -6 0 -6 7 2 20 14 22 24 19 15
-5z m-26 -76 c-5 -13 -10 -19 -10 -12 -1 15 10 45 15 40 3 -2 0 -15 -5 -28z"/>
<path d="M1915 3960 c-11 -4 -208 -197 -437 -427 -325 -326 -418 -424 -418
-443 0 -20 93 -118 423 -447 232 -232 429 -423 437 -424 33 -6 60 12 60 39 0
22 -73 100 -402 429 l-403 403 403 403 c273 273 402 409 402 423 0 11 -8 28
-18 37 -21 19 -20 19 -47 7z"/>
<path d="M3969 3949 c-10 -10 -19 -27 -19 -36 0 -10 181 -199 402 -420 l403
-403 -403 -403 c-285 -286 -402 -409 -402 -425 0 -29 42 -57 67 -43 10 5 208
200 441 434 344 344 422 427 416 443 -9 26 -843 861 -866 868 -11 2 -28 -4
-39 -15z"/>
</g>
</svg>
